[img]http://lookpic.com/i/500/PkplytEb.jpeg[/img]


[b][u]Franklyn (2008) DVDRip XviD{ExtraTorrent}-Dubby[/u][/b]
-------------------------------------------------------------------------------
[b]Movie Information[/b]
-------------------------------------------------------------------------------
Movie Title    : Franklyn
IMDB Link      : http://www.imdb.com/title/tt0893402/
Genre          : Drama | Fantasy | Romance | Thriller 
IMDB Ratings   : 6.2/10   3,670 votes 
Director       : Gerald McMorrow
Language       : English
Duriation      : 98 min

-------------------------------------------------------------------------------
[b]Main Cast[/b]
-------------------------------------------------------------------------------
Eva Green	 ... 	Emilia Bryant

Ryan Phillippe	 ... 	Jonathan Preest

Sam Riley	 ... 	Milo
-------------------------------------------------------------------------------
[b]Plot[/b]
-------------------------------------------------------------------------------
The film is a split narrative set simultaneously in contemporary London and in
a future metropolis ruled by religious fervor

-------------------------------------------------------------------------------
[b]General Release Information[/b]
-------------------------------------------------------------------------------
Release Title                    : Franklyn (2008) DVDRip XviD{ExtraTorrent}-Dubby
Source                           : Franklyn.2008.R1.NTSC.DVDR-VoMiT
Format                           : AVI
Format/Info                      : Audio Video Interleave
File size                        : 718 MiB
Duration                         : 1h 38mn
Overall bit rate                 : 1 023 Kbps
Writing application              : VirtualDubMod 1.5.10.2 (build 2540/release)
Writing library                  : VirtualDubMod build 2540/release

-------------------------------------------------------------------------------
[b]Video Information[/b]
-------------------------------------------------------------------------------
ID                               : 0
Format                           : MPEG-4 Visual
Format profile                   : AdvancedSimple@L5
Format settings, BVOP            : Yes
Format settings, QPel            : No
Format settings, GMC             : No warppoints
Format settings, Matrix          : Default (H.263)
Muxing mode                      : Packed bitstream
Codec ID                         : XVID
Codec ID/Hint                    : XviD
Duration                         : 1h 38mn
Bit rate                         : 884 Kbps
Width                            : 640 pixels
Height                           : 272 pixels
Display aspect ratio             : 2.35:1
Frame rate                       : 29.970 fps
Resolution                       : 24 bits
Colorimetry                      : 4:2:0
Scan type                        : Progressive
Bits/(Pixel*Frame)               : 0.169
Stream size                      : 620 MiB (86%)
Writing library                  : XviD 1.2.1 (UTC 2008-12-04)

-------------------------------------------------------------------------------
[b]Audio Information[/b]
-------------------------------------------------------------------------------
ID                               : 1
Format                           : MPEG Audio
Format version                   : Version 1
Format profile                   : Layer 3
Codec ID                         : 55
Codec ID/Hint                    : MP3
Duration                         : 1h 38mn
Bit rate mode                    : Constant
Bit rate                         : 128 Kbps
Channel(s)                       : 2 channels
Sampling rate                    : 48.0 KHz
Resolution                       : 16 bits
Stream size                      : 89.8 MiB (13%)
Alignment                        : Aligned on interleaves
Interleave, duration             : 33 ms (1.00 video frame)
Interleave, preload duration     : 504 ms

-------------------------------------------------------------------------------
[b]Notes[/b]
-------------------------------------------------------------------------------
I am looking For PAL and NTSC DVDRs, Pre released R5s, dvd/screeners, direct/
line audio, and syncers. If you can offer me anything, pm me and we'll chat
on msn! i do not take requests very often....
this is burn tested using convert x to dvd enjoy.

-------------------------------------------------------------------------------
[b]Screenshots[/b]
-------------------------------------------------------------------------------
[img]http://lookpic.com/i/929/muaM7yAE.png[/img]
[img]http://lookpic.com/i/96/pDTUi4u.png[/img]
[img]http://lookpic.com/i/291/sZtoaOoM.png[/img]
[img]http://lookpic.com/i/126/KFdRVHzF.png[/img]
[img]http://lookpic.com/i/878/UCw2c25T.png[/img]


Quick Shouts: Wrath, BADASS, SaM, xxxObscenexxx and every other loyal member
of et thanks to you for seeding and sharing! Blazinseedboxes.com is a good place
to get a seedbox if you are interested!